<?xml version="1.0" encoding="UTF-8"?>
<svg width="1200pt" height="1200pt" version="1.1" viewBox="0 0 1200 1200" xmlns="http://www.w3.org/2000/svg">
 <g fill="#fff">
  <path d="m843.75 750h37.5v131.25h-37.5z"/>
  <path d="m843.75 918.75h37.5v37.5h-37.5z"/>
  <path d="m918.75 787.5h37.5v206.25h-37.5z"/>
  <path d="m318.75 750h37.5v131.25h-37.5z"/>
  <path d="m318.75 918.75h37.5v37.5h-37.5z"/>
  <path d="m262.5 787.5h37.5v206.25h-37.5z"/>
  <path d="m450 426.94-37.5 22.5v0.5625h-1.125l-249.94 150h288.56z"/>
  <path d="m881.25 72.188c-23.836 33.152-54.664 60.66-90.305 80.586-35.641 19.926-75.219 31.781-115.95 34.727v30.188c0.015625 77.883 18.762 154.62 54.656 223.73 35.898 69.117 87.891 128.59 151.59 173.39 6.375-4.5 12.562-9.375 18.75-14.062 58.43-45.422 105.7-103.6 138.2-170.09 32.496-66.488 49.363-139.53 49.305-213.54v-29.625c-40.738-2.8945-80.336-14.727-115.98-34.656-35.645-19.93-66.465-47.469-90.266-80.656zm0 415.31c-39.781 0-77.938-15.805-106.07-43.934s-43.934-66.285-43.934-106.07 15.805-77.938 43.934-106.07 66.285-43.934 106.07-43.934 77.938 15.805 106.07 43.934 43.934 66.285 43.934 106.07-15.805 77.938-43.934 106.07-66.285 43.934-106.07 43.934z"/>
  <path d="m637.5 173.62v-4.875c0-4.9727 1.9766-9.7422 5.4922-13.258 3.5156-3.5156 8.2852-5.4922 13.258-5.4922 7.3281 0 14.648-0.375 21.938-1.125-5.625-17.625-11.625-35.062-18.75-52.125-6.4531-15.988-19.039-28.73-34.949-35.375-15.91-6.6484-33.816-6.6484-49.727 0-15.91 6.6445-28.496 19.387-34.949 35.375-13.863 34.73-25.082 70.457-33.562 106.88 26.156-22.324 59.363-34.68 93.75-34.875 12.664-0.074219 25.277 1.5664 37.5 4.875z"/>
  <path d="m112.5 637.5h337.5v37.5h-337.5z"/>
  <path d="m337.5 1063.9v23.625h186c-12.758-22.266-23.973-45.383-33.562-69.188z"/>
  <path d="m243.75 487.5h-37.5v41.812l37.5-22.5z"/>
  <path d="m375 412.5h-37.5v38.062l37.5-22.5z"/>
  <path d="m750 600h54c-19.488-18.07-37.543-37.633-54-58.5z"/>
  <path d="m958.5 600h80.062l-50.062-30c-9.5625 11.25-19.688 20.25-30 30z"/>
  <path d="m712.5 487.5c-49.094-81.57-75.023-174.98-75-270.19v-4.5c-20.461-7.2812-42.645-8.2227-63.648-2.7031-21.008 5.5195-39.859 17.242-54.102 33.641l-25.5 28.688c-4.4727 32.559-6.7266 65.387-6.75 98.25v442.5c-0.046875 116.39 39.641 229.3 112.5 320.06 72.859-90.762 112.55-203.68 112.5-320.06z"/>
  <path d="m881.25 225c-29.836 0-58.453 11.852-79.551 32.949-21.098 21.098-32.949 49.715-32.949 79.551s11.852 58.453 32.949 79.551c21.098 21.098 49.715 32.949 79.551 32.949s58.453-11.852 79.551-32.949c21.098-21.098 32.949-49.715 32.949-79.551s-11.852-58.453-32.949-79.551c-21.098-21.098-49.715-32.949-79.551-32.949zm-2.4375 178.12c-1.6523 2.8633-4.0312 5.2344-6.8945 6.8828-2.8672 1.6445-6.1133 2.5039-9.418 2.4922-6.2734-0.03125-12.113-3.1992-15.562-8.4375l-37.5-56.25 31.125-20.625 20.625 30.938 60-105 32.625 18.75z"/>
  <path d="m891.56 653.06c-3.0625 2.0156-6.6484 3.0898-10.312 3.0898s-7.25-1.0742-10.312-3.0898c-7.5-4.875-14.812-10.312-21.938-15.562h-99v37.5h337.5v-37.5h-174c-7.125 5.25-13.5 10.688-21.938 15.562z"/>
  <path d="m676.5 1087.5h186v-23.625l-152.44-45.562c-9.5898 23.805-20.805 46.922-33.562 69.188z"/>
 </g>
</svg>
